# xmcd CD database file
#
# Track frame offsets:
#	150
#	13914
#	27451
#	40389
#	54193
#	69214
#	81779
#	97148
#	112577
#	129481
#	144002
#	156516
#	177860
#	192173
#	206116
#	220427
#	235339
#	249885
#	263507
#	275786
#	289334
#	302209
#	313540
#	327264
#	341922
#
# Disc length: 4767 seconds
#
# Revision: 2
# Processed by: cddbd v1.5.2PL0 Copyright (c) Steve Scherf et al.
# Submitted via: CDex 1.50
#
DISCID=72129d19
DTITLE=varios - Circuito Sertanejo
DYEAR=2008
DGENRE=Country
TTITLE0=Bao Demais Da Conta
TTITLE1=A Turma Da Latinha
TTITLE2=Ficando Com As Erradas
TTITLE3=Quebradeira
TTITLE4=Que Pescar Que Nada
TTITLE5=Deixa A Poeira Voar
TTITLE6=E Isso Que Agalera Quer 
TTITLE7=A Gente Vai
TTITLE8=Mete O Pe Na Solidao
TTITLE9=Eu Sem Voce
TTITLE10=Coice De Vaca
TTITLE11=Bateu Na Veia
TTITLE12=Comitiva Quebradeira
TTITLE13=Vamo Quebrar Tudo
TTITLE14=De Latinha Na Mao
TTITLE15=A Galera Do Chapeu
TTITLE16=Amor Que Fica
TTITLE17=Cundu
TTITLE18=Sapateia
TTITLE19=Vou Mandar O Paulo Atras
TTITLE20=O Chao Balanca
TTITLE21=Bao Demais
TTITLE22=Roela Do Eno
TTITLE23=Come Quieto
TTITLE24=Faixa De Audio 25
EXTD=YEAR: 2008
EXTT0=
EXTT1=
EXTT2=
EXTT3=
EXTT4=
EXTT5=
EXTT6=
EXTT7=
EXTT8=
EXTT9=
EXTT10=
EXTT11=
EXTT12=
EXTT13=
EXTT14=
EXTT15=
EXTT16=
EXTT17=
EXTT18=
EXTT19=
EXTT20=
EXTT21=
EXTT22=
EXTT23=
EXTT24=
PLAYORDER=
